<svg xmlns="http://www.w3.org/2000/svg" width="100%" height="100%" viewBox="0 0 33.893 33.368">
  <defs>
    <style>
      .cls-1 {
        fill: #70644f;
      }
    </style>
  </defs>
  <g id="facebook" transform="translate(0)">
    <path id="facebook-2" data-name="facebook" class="cls-1" d="M57.751,42.228A16.389,16.389,0,0,0,55.2,74.8V63.354H51.047V58.612H55.2V55c0-4.1,2.436-6.361,6.181-6.361a25.633,25.633,0,0,1,3.646.311v4.039h-2.06A2.364,2.364,0,0,0,60.3,55.538v3.074h4.546l-.736,4.742H60.3V74.8a16.462,16.462,0,0,0,11.3-7.459,16.1,16.1,0,0,0,2.5-8.729A16.4,16.4,0,0,0,57.751,42.228Z" transform="translate(-41.4 -42.228)"/>
  </g>
</svg>

