<svg xmlns="http://www.w3.org/2000/svg" width="39.648" height="39.648" viewBox="0 0 39.648 39.648">
  <path id="instagram-square-brands" d="M19.824,17.935a4.721,4.721,0,1,0,4.722,4.721,4.721,4.721,0,0,0-4.722-4.721Zm11.037-3.628a4.779,4.779,0,0,0-2.691-2.691c-1.858-.734-6.283-.569-8.346-.569s-6.483-.171-8.346.569a4.779,4.779,0,0,0-2.691,2.691c-.733,1.858-.569,6.288-.569,8.348S8.053,29.139,8.79,31A4.779,4.779,0,0,0,11.481,33.7c1.858.734,6.283.569,8.346.569s6.482.171,8.346-.569A4.779,4.779,0,0,0,30.864,31c.739-1.858.569-6.288.569-8.348s.17-6.483-.569-8.348ZM19.824,29.913a7.248,7.248,0,1,1,5.134-2.123,7.257,7.257,0,0,1-5.134,2.123ZM27.38,16.788a1.684,1.684,0,1,1,1.2-.494,1.694,1.694,0,0,1-1.2.494ZM35.4,2.832H4.248A4.248,4.248,0,0,0,0,7.08V38.232A4.248,4.248,0,0,0,4.248,42.48H35.4a4.248,4.248,0,0,0,4.248-4.248V7.08A4.248,4.248,0,0,0,35.4,2.832ZM33.885,28.5A8.42,8.42,0,0,1,31.6,34.426a8.425,8.425,0,0,1-5.929,2.288c-2.337.132-9.345.132-11.682,0a8.436,8.436,0,0,1-5.929-2.288A8.4,8.4,0,0,1,5.768,28.5c-.132-2.338-.132-9.346,0-11.682a8.393,8.393,0,0,1,2.288-5.929A8.44,8.44,0,0,1,13.986,8.6c2.337-.132,9.345-.132,11.682,0A8.426,8.426,0,0,1,31.6,10.892a8.425,8.425,0,0,1,2.288,5.934C34.017,19.155,34.017,26.157,33.885,28.5Z" transform="translate(0 -2.832)" fill="#70644f"/>
</svg>
