<svg xmlns="http://www.w3.org/2000/svg" width="33.89" height="33.89" viewBox="0 0 33.89 33.89">
  <defs>
    <style>
      .cls-1 {
        fill: #fff;
      }
    </style>
  </defs>
  <path id="instagram-square-brands" class="cls-1" d="M16.945,15.742a4.035,4.035,0,1,0,4.037,4.036,4.035,4.035,0,0,0-4.037-4.036Zm9.434-3.1a4.085,4.085,0,0,0-2.3-2.3c-1.589-.627-5.371-.486-7.134-.486s-5.541-.146-7.134.486a4.085,4.085,0,0,0-2.3,2.3c-.626,1.589-.486,5.375-.486,7.136s-.14,5.543.489,7.137a4.085,4.085,0,0,0,2.3,2.3c1.589.627,5.371.486,7.134.486s5.54.146,7.134-.486a4.085,4.085,0,0,0,2.3-2.3c.632-1.589.486-5.375.486-7.136s.145-5.542-.486-7.136ZM16.945,25.98a6.2,6.2,0,1,1,4.388-1.815,6.2,6.2,0,0,1-4.388,1.815ZM23.4,14.762a1.44,1.44,0,1,1,1.026-.422,1.448,1.448,0,0,1-1.026.422Zm6.855-11.93H3.631A3.631,3.631,0,0,0,0,6.463V33.091a3.631,3.631,0,0,0,3.631,3.631H30.259a3.631,3.631,0,0,0,3.631-3.631V6.463a3.631,3.631,0,0,0-3.631-3.631Zm-1.3,21.938a7.2,7.2,0,0,1-1.955,5.068,7.2,7.2,0,0,1-5.068,1.955c-2,.113-7.988.113-9.985,0a7.211,7.211,0,0,1-5.068-1.955A7.176,7.176,0,0,1,4.931,24.77c-.113-2-.113-7.989,0-9.985A7.174,7.174,0,0,1,6.886,9.716a7.214,7.214,0,0,1,5.068-1.95c2-.113,7.988-.113,9.985,0a7.2,7.2,0,0,1,5.068,1.955,7.2,7.2,0,0,1,1.955,5.072C29.077,16.784,29.077,22.77,28.964,24.77Z" transform="translate(0 -2.832)"/>
</svg>
