<svg xmlns="http://www.w3.org/2000/svg" width="37.319" height="37.319" viewBox="0 0 37.319 37.319">
  <path id="line-brands" d="M22.666,46.344v5.923a.263.263,0,0,1-.267.267h-.95a.276.276,0,0,1-.217-.108L18.518,48.76v3.515a.263.263,0,0,1-.267.267H17.3a.263.263,0,0,1-.267-.267V46.353a.263.263,0,0,1,.267-.267h.941a.251.251,0,0,1,.217.117l2.716,3.665V46.353a.263.263,0,0,1,.267-.267h.95A.263.263,0,0,1,22.666,46.344Zm-6.831-.267h-.95a.263.263,0,0,0-.267.267v5.923a.263.263,0,0,0,.267.267h.95a.263.263,0,0,0,.267-.267V46.344A.268.268,0,0,0,15.835,46.078Zm-2.291,4.965H10.954v-4.7a.263.263,0,0,0-.267-.267h-.95a.263.263,0,0,0-.267.267v5.923a.245.245,0,0,0,.075.183.281.281,0,0,0,.183.075h3.807a.263.263,0,0,0,.267-.267v-.95a.267.267,0,0,0-.258-.267Zm14.12-4.965H23.857a.268.268,0,0,0-.267.267v5.923a.268.268,0,0,0,.267.267h3.807a.263.263,0,0,0,.267-.267v-.95a.263.263,0,0,0-.267-.267H25.073v-1h2.591a.263.263,0,0,0,.267-.267v-.958a.263.263,0,0,0-.267-.267H25.073v-1h2.591a.263.263,0,0,0,.267-.267v-.95A.28.28,0,0,0,27.664,46.078Zm9.655-7.272V62.571a6.785,6.785,0,0,1-6.806,6.747H6.747A6.79,6.79,0,0,1,0,62.513V38.747A6.79,6.79,0,0,1,6.806,32H30.571A6.785,6.785,0,0,1,37.319,38.806ZM32.187,49.018c0-6.081-6.1-11.029-13.586-11.029S5.015,42.937,5.015,49.018c0,5.448,4.831,10.013,11.362,10.879,1.591.342,1.408.925,1.05,3.065-.058.342-.275,1.341,1.175.733s7.822-4.607,10.679-7.889A9.841,9.841,0,0,0,32.187,49.018Z" transform="translate(0 -32)" fill="#70644f"/>
</svg>
