<svg xmlns="http://www.w3.org/2000/svg" width="33.368" height="33.368" viewBox="0 0 33.368 33.368">
  <defs>
    <style>
      .cls-1 {
        fill: #fff;
      }
    </style>
  </defs>
  <path id="line-brands" class="cls-1" d="M20.266,44.826v5.3a.235.235,0,0,1-.238.238h-.849a.246.246,0,0,1-.194-.1l-2.428-3.277v3.143a.235.235,0,0,1-.238.238H15.47a.235.235,0,0,1-.238-.238v-5.3a.235.235,0,0,1,.238-.238h.842a.225.225,0,0,1,.194.1l2.428,3.277V44.833a.235.235,0,0,1,.238-.238h.849A.236.236,0,0,1,20.266,44.826Zm-6.107-.238H13.31a.235.235,0,0,0-.238.238v5.3a.235.235,0,0,0,.238.238h.849a.235.235,0,0,0,.238-.238v-5.3A.24.24,0,0,0,14.159,44.587Zm-2.048,4.439H9.794v-4.2a.235.235,0,0,0-.238-.238H8.707a.235.235,0,0,0-.238.238v5.3a.219.219,0,0,0,.067.164.251.251,0,0,0,.164.067h3.4a.235.235,0,0,0,.238-.238v-.849A.239.239,0,0,0,12.111,49.026Zm12.625-4.439h-3.4a.24.24,0,0,0-.238.238v5.3a.24.24,0,0,0,.238.238h3.4a.235.235,0,0,0,.238-.238v-.849a.235.235,0,0,0-.238-.238H22.419V48.14h2.316a.235.235,0,0,0,.238-.238v-.857a.235.235,0,0,0-.238-.238H22.419v-.894h2.316a.235.235,0,0,0,.238-.238v-.849A.25.25,0,0,0,24.735,44.587Zm8.632-6.5v21.25a6.067,6.067,0,0,1-6.085,6.033H6.033A6.071,6.071,0,0,1,0,59.282V38.033A6.071,6.071,0,0,1,6.085,32h21.25A6.067,6.067,0,0,1,33.368,38.085Zm-4.588,9.131c0-5.437-5.452-9.861-12.148-9.861S4.484,41.779,4.484,47.216c0,4.871,4.32,8.953,10.159,9.727,1.423.305,1.259.827.938,2.741-.052.305-.246,1.2,1.05.655a39.259,39.259,0,0,0,9.549-7.053A8.8,8.8,0,0,0,28.779,47.216Z" transform="translate(0 -32)"/>
</svg>
