<svg xmlns="http://www.w3.org/2000/svg" width="143.418" height="321.755" viewBox="0 0 143.418 321.755">
  <g id="heading_subtitle01" transform="translate(-368.805 -844.5)">
    <path id="パス_15" data-name="パス 15" d="M48.339-39.169H69.3c1.31,0,1.834-.393,1.834-1.179,0-.917-.655-1.834-2.751-3.93C63.4-48.47,62.618-49.125,61.7-49.125c-.786,0-1.7.655-6.157,6.681H48.339V-62.618h24.5c1.31,0,1.7-.393,1.7-1.179,0-.917-.655-1.7-2.882-3.668-4.978-4.454-5.9-5.109-6.943-5.109-.786,0-1.7.655-6.55,6.681H48.339V-87.508H71c1.31,0,1.7-.393,1.7-1.179s-.655-1.7-3.013-3.668c-5.371-4.716-6.157-5.371-7.074-5.371-.786,0-1.7.655-6.681,6.943H28.951A73.969,73.969,0,0,0,33.929-101c3.406-.786,4.454-1.441,4.454-2.62,0-1.7-2.227-2.751-12.707-5.764a73.043,73.043,0,0,1-2.358,10.611A74.064,74.064,0,0,1,8.908-72.181c-.524.524.786,1.572,1.441,1.179A63.764,63.764,0,0,0,26.855-87.508H39.169v21.615H15.851a42.48,42.48,0,0,1-9.694-.917l1.31,4.978a48.748,48.748,0,0,1,8.384-.786H39.169v50.042c-3.8.786-9.3,1.572-13.1,2.1V-46.767c2.882-1.31,3.8-2.1,3.8-3.144,0-1.31-1.31-2.358-13.493-3.668a110.593,110.593,0,0,1,.655,14.017v30.13a82.588,82.588,0,0,1-11.4.786C8.908,4.061,9.694,5.24,11.135,5.24S13.1,4.323,14.017.655c25.545-5.764,42.182-11,58.557-18.471.655-.262.393-2.1-.393-1.834-7.86,2.1-15.851,3.93-23.842,5.5ZM86.722-92.486h22.139v71c0,1.441-.655,2.1-2.227,2.1-3.537,0-7.336-.131-13.362-.655-.655,0-.655,1.441,0,1.572,9.563,2.227,11.266,3.668,11.921,7.729.131,1.572.524,1.965,1.834,1.965,3.275,0,6.812-1.179,8.646-3.275,1.572-1.834,2.751-4.061,2.751-8.777,0-3.537-.524-7.074-.524-49.256V-89.211c3.275-1.965,3.8-2.751,3.8-3.8,0-.786-.262-1.7-2.489-3.668-4.323-3.93-5.24-4.192-6.157-4.192-.786,0-1.441.524-5.371,5.109H87.9a63.855,63.855,0,0,0-11.135-5.764c.524,5.5.786,13.362.786,48.863,0,34.584-.655,55.02-.655,59.343,0,2.62,1.048,3.8,4.192,3.8,4.061,0,5.764-1.441,5.764-4.716,0-18.209-.131-39.431-.131-60.784Zm20.829,231.693a64.024,64.024,0,0,1-6.681,12.969c-.393.524.655,1.179,1.179.917a68.437,68.437,0,0,0,11.266-8.253c1.7-1.441,2.227-2.1,3.93-2.1,4.323,0,5.5-.655,5.5-2.62,0-.786-.524-1.834-3.144-4.192-5.5-5.109-6.419-5.633-7.336-5.633-.786,0-1.572.393-5.9,5.633H22.532a41.955,41.955,0,0,0-.786-6.681c-.131-.655-1.441-.786-1.441-.131-.786,8.384-4.323,12.969-10.349,16.244-3.013,1.572-4.192,3.275-4.192,5.764a4.894,4.894,0,0,0,4.978,4.978c6.288,0,11.135-6.812,11.79-16.9ZM67.989,119.033V103.706H121.7c1.31,0,1.7-.393,1.7-1.179s-.655-1.7-3.668-4.061c-6.157-4.978-7.074-5.5-7.991-5.5-.786,0-1.7.524-7.6,7.467H67.989V90.213c3.537-1.441,4.585-2.358,4.585-3.406,0-1.441-1.572-2.489-15.065-3.8a91.554,91.554,0,0,1,.786,13.755v3.668H17.685a50.554,50.554,0,0,1-10.611-.917l1.31,4.978a60.083,60.083,0,0,1,9.563-.786H58.295v15.327H29.344a48.175,48.175,0,0,1-10.349-.917l1.31,5.109a58.786,58.786,0,0,1,9.3-.917H111.35c1.31,0,1.834-.393,1.834-1.179s-.655-1.7-3.275-3.8c-5.895-4.847-6.812-5.371-7.729-5.371-.786,0-1.7.524-7.336,7.074ZM80.7,151.914c3.537-1.31,4.323-2.1,4.323-3.406,0-1.572-.262-1.834-14.41-3.8.524,6.288.524,11.79.524,22.139,0,14.541-.131,18.078-.131,20.567,0,9.17,4.061,11.135,21.353,11.135,11.4,0,17.816-.393,22.794-1.441,6.288-1.441,7.991-3.8,7.991-6.55,0-1.834-.524-3.144-3.013-4.323-1.048-.393-1.441-.786-1.441-2.882,0-3.537.262-8.646.262-12.838,0-.786-1.572-.786-1.834,0-3.668,12.969-4.978,16.113-7.729,17.554-3.013,1.572-6.026,1.965-16.113,1.965-11.659,0-12.576-1.048-12.576-5.109ZM6.157,202.087c18.733-3.537,31.44-9.694,38.776-20.96,4.061-6.288,6.288-14.279,7.205-24.5.131-1.572.262-3.275.393-4.978,3.406-1.179,4.323-1.834,4.323-3.144,0-1.965-3.406-2.882-14.672-3.8.131,2.1.131,3.406.131,4.978,0,15.851-2.751,25.545-9.039,33.143-5.9,7.205-14.148,12.445-27.641,17.03C4.716,200.122,5.24,202.218,6.157,202.087Z" transform="translate(363.651 960)" fill="#fff"/>
    <line id="線_1" data-name="線 1" y2="321.755" transform="translate(511.723 844.5)" fill="none" stroke="#fff" stroke-width="1"/>
  </g>
</svg>
