<svg xmlns="http://www.w3.org/2000/svg" width="145.756" height="321.755" viewBox="0 0 145.756 321.755">
  <g id="header_subtitle02" transform="translate(-366.467 -844.5)">
    <line id="線_1" data-name="線 1" y2="321.755" transform="translate(511.723 844.5)" fill="none" stroke="#fff" stroke-width="1"/>
    <path id="パス_13" data-name="パス 13" d="M99.329,27.06c-.155,9.192-.349,17.239-.582,24.3s-.5,13.149-.815,18.414-.66,9.713-1.048,13.506-.815,6.932-1.281,9.579c-.466,2.149-.893,3.916-1.349,5.358a12.906,12.906,0,0,1-1.524,3.406,4.841,4.841,0,0,1-2.107,1.791,7.679,7.679,0,0,1-3.1.514c-.684,0-1.4,0-2.234-.023s-1.792-.053-2.958-.119-2.543-.165-4.219-.311-3.654-.34-6.02-.6a.393.393,0,0,0-.42.221,1.268,1.268,0,0,0-.14.62,1.567,1.567,0,0,0,.14.668.6.6,0,0,0,.42.364c2.585.633,4.662,1.2,6.337,1.761a19.216,19.216,0,0,1,3.918,1.705,6.353,6.353,0,0,1,2.12,1.98,7.064,7.064,0,0,1,.942,2.584,4.337,4.337,0,0,0,.3,1.213,1.843,1.843,0,0,0,.536.723,1.885,1.885,0,0,0,.769.349,4.633,4.633,0,0,0,1,.092,11.708,11.708,0,0,0,2.267-.222,13.249,13.249,0,0,0,2.254-.655,13.67,13.67,0,0,0,2.137-1.052,12.9,12.9,0,0,0,1.915-1.415,16.4,16.4,0,0,0,1.983-2.057,18.537,18.537,0,0,0,1.68-2.466,23.643,23.643,0,0,0,1.4-2.911,32.782,32.782,0,0,0,1.144-3.39,62.136,62.136,0,0,0,2.006-9.239c.595-3.878,1.118-8.606,1.576-14.344s.849-12.482,1.18-20.393.6-16.988.819-27.389c.713-.461,1.278-.846,1.726-1.177a8.392,8.392,0,0,0,1.017-.856,2.3,2.3,0,0,0,.482-.673,1.524,1.524,0,0,0,.122-.63,1.478,1.478,0,0,0-.106-.558,2.7,2.7,0,0,0-.374-.63,9.26,9.26,0,0,0-.722-.82c-.308-.318-.688-.687-1.152-1.127-1.085-.944-1.937-1.675-2.619-2.242s-1.194-.968-1.6-1.252a4.547,4.547,0,0,0-.946-.546,1.781,1.781,0,0,0-.667-.123,1.279,1.279,0,0,0-.591.125,3.94,3.94,0,0,0-.882.625c-.38.332-.865.806-1.511,1.484s-1.453,1.559-2.477,2.7l-40.581-.35q.936-1.632,1.849-3.359t1.8-3.546q.889-1.82,1.754-3.733t1.707-3.92c.935-.147,1.691-.3,2.3-.456a6.118,6.118,0,0,0,1.41-.523,1.783,1.783,0,0,0,.709-.647,1.607,1.607,0,0,0,.195-.828,1.45,1.45,0,0,0-.573-1.1,8.008,8.008,0,0,0-2.045-1.193c-.982-.439-2.291-.932-4.01-1.518S58.754,1.5,56.133.694c-.156,1.092-.32,2.177-.5,3.259s-.38,2.163-.607,3.246-.48,2.172-.771,3.269-.619,2.2-.993,3.325q-1.5,4.534-3.343,8.8T45.811,30.94a94,94,0,0,1-4.976,7.99q-2.724,3.924-5.954,7.741a.512.512,0,0,0-.117.549,1.336,1.336,0,0,0,.4.564,1.632,1.632,0,0,0,.634.355.652.652,0,0,0,.587-.08c2-1.644,3.879-3.3,5.65-4.977s3.435-3.388,5.013-5.142,3.069-3.556,4.494-5.425,2.783-3.8,4.094-5.823ZM55.259,78.32l18.58.094v4.745a3.953,3.953,0,0,0,.21,1.365,2.224,2.224,0,0,0,.63.934,2.664,2.664,0,0,0,1.051.537,5.614,5.614,0,0,0,1.471.176,12.63,12.63,0,0,0,2.5-.2,5.042,5.042,0,0,0,1.744-.651,2.769,2.769,0,0,0,1.021-1.122,3.627,3.627,0,0,0,.332-1.617c0-.53-.023-1.412-.058-2.67s-.082-2.892-.128-4.928-.093-4.474-.128-7.338-.058-6.156-.058-9.9V49.88c.653-.4,1.174-.741,1.588-1.038a7.088,7.088,0,0,0,.946-.785,2.145,2.145,0,0,0,.457-.648,1.554,1.554,0,0,0,.119-.627,2.007,2.007,0,0,0-.087-.593,2.7,2.7,0,0,0-.332-.689,5.6,5.6,0,0,0-.682-.832A12.918,12.918,0,0,0,83.3,43.646c-.964-.756-1.726-1.354-2.341-1.827S79.877,41,79.5,40.748a4.837,4.837,0,0,0-.895-.506,1.742,1.742,0,0,0-.661-.13,1.221,1.221,0,0,0-.584.136,3.79,3.79,0,0,0-.817.6c-.342.31-.77.743-1.331,1.348s-1.253,1.38-2.125,2.372l-16.585-.12c-1.03-.6-1.92-1.108-2.739-1.561s-1.569-.854-2.318-1.242-1.5-.765-2.319-1.172-1.71-.843-2.742-1.352c.125,1.971.219,3.6.289,5.078s.117,2.813.148,4.2.047,2.819.055,4.5.008,3.614.008,5.99c0,3.627-.023,6.981-.059,10.008s-.082,5.728-.129,8.05-.094,4.264-.129,5.775-.059,2.589-.059,3.184a3.747,3.747,0,0,0,.213,1.348,2.041,2.041,0,0,0,.646.892,2.783,2.783,0,0,0,1.092.5,6.833,6.833,0,0,0,1.548.157,11.523,11.523,0,0,0,2.3-.187,4.624,4.624,0,0,0,1.639-.624,2.7,2.7,0,0,0,.983-1.119,3.877,3.877,0,0,0,.328-1.673Zm18.58-3.028-18.58-.1V47.566l18.58.131ZM25.611,31.073l16.026.13a3.648,3.648,0,0,0,.782-.064,1.276,1.276,0,0,0,.5-.207.775.775,0,0,0,.266-.35,1.353,1.353,0,0,0,.078-.492,1.958,1.958,0,0,0-.106-.617,3.474,3.474,0,0,0-.363-.748,7.337,7.337,0,0,0-.692-.915,15.512,15.512,0,0,0-1.091-1.118c-1.063-.948-1.908-1.7-2.59-2.29s-1.2-1.027-1.617-1.344a5.473,5.473,0,0,0-.984-.634,1.606,1.606,0,0,0-.69-.162,1.225,1.225,0,0,0-.632.173,4.554,4.554,0,0,0-.949.768c-.4.4-.9.951-1.536,1.726s-1.423,1.77-2.393,3.046l-4.01-.033V7.149a22.177,22.177,0,0,0,2.074-.929,7.155,7.155,0,0,0,1.263-.808,2.407,2.407,0,0,0,.628-.743,1.585,1.585,0,0,0,.17-.736,1.386,1.386,0,0,0-.53-1.136A5.446,5.446,0,0,0,27.194,1.9a38.056,38.056,0,0,0-4.162-.821C21.216.8,18.934.505,16.08.163c.157,1.224.275,2.306.363,3.5s.147,2.492.186,4.153.059,3.682.069,6.314.01,5.875.01,9.98v3.76l-7.281-.061c-.722-.006-1.4-.019-2.057-.048s-1.3-.074-1.963-.142-1.335-.16-2.058-.284-1.493-.279-2.342-.474l1.257,4.778c.754-.119,1.438-.224,2.076-.312s1.231-.162,1.8-.221,1.127-.1,1.686-.127,1.125-.038,1.721-.033L16.707,31V59.953q-.894.229-1.788.435t-1.789.388q-.895.183-1.789.342t-1.79.295q-1.413.273-2.728.5t-2.517.394q-1.2.169-2.282.278c-.719.072-1.395.123-2.024.15.849,2.8,1.525,4.957,2.081,6.624s.992,2.842,1.361,3.667A4.938,4.938,0,0,0,4.4,74.6a1.179,1.179,0,0,0,.878.336,1.66,1.66,0,0,0,.852-.205,1.951,1.951,0,0,0,.687-.712,5.482,5.482,0,0,0,.546-1.347,17.157,17.157,0,0,0,.428-2.112l2.4-.906q1.174-.443,2.294-.871t2.175-.848q1.056-.42,2.045-.836v34.842a4.23,4.23,0,0,1-.084.948,1.3,1.3,0,0,1-.308.618,1.26,1.26,0,0,1-.614.335,3.969,3.969,0,0,1-1,.1c-.753,0-1.546-.021-2.4-.055s-1.785-.084-2.806-.15-2.136-.148-3.372-.247-2.6-.213-4.1-.343a.4.4,0,0,0-.354.236,1.131,1.131,0,0,0-.118.531,1.285,1.285,0,0,0,.118.555.525.525,0,0,0,.354.309,50.113,50.113,0,0,1,5.239,1.546,12.331,12.331,0,0,1,3.117,1.585,5.182,5.182,0,0,1,1.609,1.909,8.9,8.9,0,0,1,.714,2.517,5.63,5.63,0,0,0,.245,1.041,2.054,2.054,0,0,0,.4.7,1.442,1.442,0,0,0,.61.4,2.716,2.716,0,0,0,.881.126,11.909,11.909,0,0,0,2.147-.194,12.849,12.849,0,0,0,2.041-.547,12.065,12.065,0,0,0,1.829-.829,9.469,9.469,0,0,0,1.511-1.041,11.058,11.058,0,0,0,1.395-1.445,9.182,9.182,0,0,0,1.113-1.774,9.777,9.777,0,0,0,.736-2.2,13.077,13.077,0,0,0,.266-2.716c0-1-.016-2.09-.039-3.65s-.055-3.592-.086-6.48-.063-6.635-.086-11.624-.039-11.221-.039-19.081c1.159-.588,2.311-1.191,3.475-1.818s2.343-1.277,3.556-1.958,2.461-1.393,3.766-2.143,2.665-1.539,4.1-2.375a.567.567,0,0,0,.2-.427,1.306,1.306,0,0,0-.092-.558,1.057,1.057,0,0,0-.3-.442.421.421,0,0,0-.432-.079q-1.877.645-3.689,1.262T32.611,55.67q-1.773.575-3.517,1.1t-3.483.984Zm14.15,230.253q-.094-1.266-.164-2.341c-.047-.715-.086-1.364-.117-1.943s-.055-1.087-.07-1.521-.023-.794-.023-1.075c0-2,.094-4.1.283-6.263s.475-4.395.858-6.665.864-4.58,1.444-6.9,1.26-4.655,2.042-6.974c.125-.407.266-.8.416-1.167s.311-.713.475-1.026a8.426,8.426,0,0,1,.5-.839,4.314,4.314,0,0,1,.486-.6,4.739,4.739,0,0,0,.459-.672,6.206,6.206,0,0,0,.4-.848,6.132,6.132,0,0,0,.283-.965,5.123,5.123,0,0,0,.107-1.023,10.274,10.274,0,0,0-.133-1.657A11.746,11.746,0,0,0,46.545,217a17.167,17.167,0,0,0-.883-2.123,28.611,28.611,0,0,0-1.4-2.5,20.278,20.278,0,0,0-2.059-2.81A18.639,18.639,0,0,0,39.98,207.4a11.731,11.731,0,0,0-2.084-1.391,3.865,3.865,0,0,0-1.639-.489,4.215,4.215,0,0,0-.722.071,4.173,4.173,0,0,0-.733.2,1.94,1.94,0,0,0-.569.317.568.568,0,0,0-.229.421.713.713,0,0,0,.084.336,1.369,1.369,0,0,0,.213.289c.086.094.184.187.284.289a3.348,3.348,0,0,1,.3.335c.5.687.962,1.374,1.373,2.066a16.981,16.981,0,0,1,1.068,2.1,12.465,12.465,0,0,1,.692,2.174,10.739,10.739,0,0,1,.246,2.281c0,.594-.023,1.2-.074,1.868s-.129,1.379-.239,2.185-.25,1.7-.426,2.726-.387,2.174-.637,3.49c-.438,2.193-.884,4.479-1.306,6.813s-.821,4.714-1.166,7.095-.634,4.761-.837,7.094-.321,4.619-.321,6.81c0,1.408.031,2.754.1,4.055s.168,2.556.309,3.783.321,2.427.544,3.617.489,2.369.8,3.556a21.491,21.491,0,0,0,1.254,3.558,13.024,13.024,0,0,0,1.641,2.71,7.018,7.018,0,0,0,1.945,1.721,4.269,4.269,0,0,0,2.168.593,3.882,3.882,0,0,0,1.391-.252,2.969,2.969,0,0,0,1.11-.754,3.473,3.473,0,0,0,.735-1.29,5.963,5.963,0,0,0,.266-1.861c0-.219-.008-.453-.021-.7s-.033-.51-.057-.783-.051-.559-.08-.854-.061-.6-.092-.912c-.063-.312-.117-.625-.164-.935s-.086-.619-.117-.924-.055-.606-.07-.9-.023-.584-.023-.866A19.865,19.865,0,0,1,45.012,265c.084-.8.213-1.714.393-2.747s.41-2.184.7-3.453.631-2.655,1.037-4.158c.687-2.631,1.437-5.317,2.236-7.948s1.646-5.207,2.528-7.619,1.8-4.659,2.738-6.633a31.26,31.26,0,0,1,2.865-4.991,24.386,24.386,0,0,1,1.6-1.89,12.89,12.89,0,0,1,1.618-1.468,7.141,7.141,0,0,1,1.665-.952,4.785,4.785,0,0,1,1.734-.344,5.054,5.054,0,0,1,2.149.434,5.671,5.671,0,0,1,1.856,1.407,12.44,12.44,0,0,1,1.692,2.508,33.428,33.428,0,0,1,1.657,3.737,28.982,28.982,0,0,1,1.178,4.136c.321,1.51.574,3.152.769,4.922s.331,3.67.418,5.7.126,4.18.126,6.459a82.883,82.883,0,0,1-.588,10.179,59.825,59.825,0,0,1-1.779,8.959A49.671,49.671,0,0,1,68.6,279.2a49.368,49.368,0,0,1-4.235,7.193A63.115,63.115,0,0,1,59.033,293a56.658,56.658,0,0,1-6.006,5.6A60,60,0,0,1,46.2,303.35a74.349,74.349,0,0,1-7.811,4.043,4.585,4.585,0,0,0-.782.4,2.472,2.472,0,0,0-.5.424,1.455,1.455,0,0,0-.266.421,1.065,1.065,0,0,0-.078.4,1.526,1.526,0,0,0,.094.564.919.919,0,0,0,.282.386,1.206,1.206,0,0,0,.469.22,2.617,2.617,0,0,0,.657.066c.156,0,.336-.011.54-.031s.43-.049.68-.091.524-.1.821-.163.618-.149.962-.246a54.83,54.83,0,0,0,7.892-2.853,59.362,59.362,0,0,0,7.883-4.291A61.05,61.05,0,0,0,71.472,289.58a47.878,47.878,0,0,0,4.838-7.207,48.646,48.646,0,0,0,3.6-8.422,59.535,59.535,0,0,0,2.244-9.929,83.583,83.583,0,0,0,.774-11.73,60.358,60.358,0,0,0-.364-6.506,64.389,64.389,0,0,0-1.052-6.526,55.59,55.59,0,0,0-1.682-6.15,38.768,38.768,0,0,0-2.254-5.376,25.837,25.837,0,0,0-2.556-3.946,17.833,17.833,0,0,0-2.954-2.974,12.406,12.406,0,0,0-3.283-1.873,9.958,9.958,0,0,0-6.232-.267,10.492,10.492,0,0,0-2.47,1.067,13.253,13.253,0,0,0-2.26,1.7,18.534,18.534,0,0,0-2.062,2.273,33.888,33.888,0,0,0-2.452,3.731c-.845,1.458-1.708,3.1-2.559,4.858s-1.691,3.62-2.489,5.516-1.556,3.824-2.244,5.7c-.438,1.316-.883,2.609-1.334,3.927s-.908,2.662-1.37,4.08-.926,2.911-1.393,4.527-.936,3.355-1.405,5.267Z" transform="translate(366.467 845.92)" fill="#fff"/>
  </g>
</svg>
