<svg xmlns="http://www.w3.org/2000/svg" width="136.946" height="316" viewBox="0 0 136.946 316">
  <defs>
    <style>
      .cls-1 {
        fill: #fff;
      }

      .cls-2 {
        fill: none;
        stroke: #fff;
      }
    </style>
  </defs>
  <g id="top-subtitle-ikeuo" transform="translate(-375.277 -801.5)">
    <path id="パス_8" data-name="パス 8" class="cls-1" d="M79.834-88.5V-63.11H103.21q5.8-7.019,6.348-7.019.732,0,7.141,5.615,2.747,2.319,2.747,3.418T117.8-60H79.834v25.513H97.961q4.089-4.272,4.822-4.272,1.1,0,5,3.357,2.136,1.892,2.136,2.93,0,1.221-3.357,3.357v8.728l.488,24.719q0,3.235-4.761,3.235-3.357,0-3.357-2.625V1.221H53.955v3.6q0,3.418-4.761,3.418-3.235,0-3.235-2.625l.366-24.231a194.458,194.458,0,0,0-.732-20.508,46.761,46.761,0,0,1,9.46,4.639H72.2V-60H49.072a60.6,60.6,0,0,0-8.362.732l-1.282-4.578a62.543,62.543,0,0,0,9.644.732H72.2V-86.792a204.4,204.4,0,0,1-29.3,3.662q-.732,0-.732-1.038,0-.671.427-.732a218.8,218.8,0,0,0,27.161-6.165,159.287,159.287,0,0,0,20.569-7.324,39.14,39.14,0,0,0,9.46-5.737q8.3,6.47,8.3,8,0,1.221-2.075,1.221a13.306,13.306,0,0,1-3.845-.732A154.381,154.381,0,0,1,79.834-88.5Zm19.1,86.609v-29.48H53.955v29.48ZM14.771-98.877a.55.55,0,0,1-.366-.488q0-.977.916-.854,9.094,1.526,14.4,5.554Q34.3-91.187,34.3-87.036a4.918,4.918,0,0,1-1.465,3.723,3.686,3.686,0,0,1-2.686,1.16q-2.136,0-4.028-3.845A30.29,30.29,0,0,0,14.771-98.877ZM6.1-69.4a.475.475,0,0,1-.305-.488q0-.977.916-.854,8.484,1.282,13.794,5.31,4.517,3.418,4.517,7.2a5.114,5.114,0,0,1-1.4,3.784,3.664,3.664,0,0,1-2.747,1.221q-2.5,0-3.967-3.906A28.263,28.263,0,0,0,6.1-69.4Zm31.677-1.709a.426.426,0,0,1,.488-.366q1.038,0,1.038.793v.183Q30.273-41.748,24.109-24.9a19.288,19.288,0,0,0-1.4,6.531,38.76,38.76,0,0,0,1.77,9.644A34.858,34.858,0,0,1,25.94-.366q0,7.629-5.981,7.629-4.395,0-4.395-6.653a43.655,43.655,0,0,1,.366-5,68.61,68.61,0,0,0,.549-7.629q0-5.493-2.563-7.69-2.014-1.77-7.874-3.3a.757.757,0,0,1-.488-.793q0-1.1.671-.977a48.926,48.926,0,0,0,6.409.549q3.845,0,6.1-4.517Q26.245-43.518,37.781-71.106ZM32.9,174.731v1.648q0,3.235-4.761,3.235-3.235,0-3.235-2.5l.488-22.888q0-17.212-.244-22.339a119.2,119.2,0,0,1-14.038,8.667.542.542,0,0,1-.244.061q-.977,0-.977-1.16,0-.305.183-.366a87.872,87.872,0,0,0,28.32-31.128A56.881,56.881,0,0,0,44.006,94.47a90.161,90.161,0,0,1,10.071,3.54q1.587.793,1.587,1.831,0,1.526-5.127,2.5-1.4,2.625-4.395,7.385H70.374q3.784-4.517,4.761-4.517,1.282,0,5.859,4.639,2.258,2.258,2.258,3.479,0,1.77-5.371,2.869A139.764,139.764,0,0,1,63.9,131.274H92.529q3.723-4.15,4.578-4.15,1.221,0,5.249,3.54,2.136,1.831,2.136,2.869,0,1.221-3.479,3.235V148.12l.488,27.649q0,3.235-4.883,3.235-3.113,0-3.113-2.5v-1.77Zm0-23.865H59.021V134.387H32.9Zm0,3.113v17.639H59.021V153.979Zm-3.479-25.452q3.174,1.709,4.761,2.747H60.3a97.813,97.813,0,0,0,9.827-18.433H43.884A85.037,85.037,0,0,1,29.419,128.528Zm64.087,43.091V153.979H66.284v17.639Zm0-20.752V134.387H66.284v16.479ZM91.248,184.5a.5.5,0,0,1-.122-.366.647.647,0,0,1,.732-.732.249.249,0,0,1,.183.061q9.827,3.6,15.625,9.277,5,4.944,5,9.644a5.468,5.468,0,0,1-1.343,3.845,4.04,4.04,0,0,1-3.052,1.282q-2.686,0-4.517-5.127Q100.464,192.676,91.248,184.5Zm-24.109-.122a.352.352,0,0,1-.122-.244q0-.61.854-.61a.542.542,0,0,1,.244.061A34.154,34.154,0,0,1,79.1,192.8q3.3,4.395,3.3,8.24a6.548,6.548,0,0,1-1.343,4.272,4.18,4.18,0,0,1-3.3,1.465q-3.113,0-3.723-5.249A35.1,35.1,0,0,0,67.139,184.375Zm-22.888-.366v-.183q0-.549.671-.549a.868.868,0,0,1,.488.122,26.48,26.48,0,0,1,7.263,9.277,19.184,19.184,0,0,1,2.2,8.118q0,6.592-5.066,6.592-3.662,0-3.662-5.127a8.922,8.922,0,0,1,.061-1.1q.061-1.953.061-3.845A38.48,38.48,0,0,0,44.25,184.009Zm-17.09-.488a.583.583,0,0,1,.671-.549q.732,0,.732.61.061,1.16.061,2.136a26.684,26.684,0,0,1-5,15.991q-4.395,6.042-9.583,6.042a4.368,4.368,0,0,1-4.395-4.395q0-3.54,4.761-5.371Q24.719,193.835,27.161,183.521Z" transform="translate(369.723 906)"/>
    <line id="線_1" data-name="線 1" class="cls-2" y2="316" transform="translate(511.723 801.5)"/>
  </g>
</svg>
