<svg xmlns="http://www.w3.org/2000/svg" width="148.572" height="321.755" viewBox="0 0 148.572 321.755">
  <g id="heading_subtitle03" transform="translate(-363.651 -844.5)">
    <path id="パス_14" data-name="パス 14" d="M70.25-87.75v-9.875c3.5-1.625,4.625-2.625,4.625-3.625,0-1.5-1.5-2.5-14.25-3.875a56.943,56.943,0,0,1,.625,8.25v9.125h-34a72.448,72.448,0,0,0-11.625-5.875C16.25-85.75,16.5-81,16.5-69.5c0,20-.75,32.375-2.25,42.875A100.509,100.509,0,0,1,3.125,7.25c-.375.75,1.25,1.5,1.75.875C14.375-3.25,18.875-13,21.75-25c2.875-11.625,4-26.5,4.25-51.375v-8.25h91.625c1.25,0,1.75-.375,1.75-1.25,0-.75-.375-1.5-3.25-3.75-6.125-4.75-6.875-5.25-7.75-5.25s-1.5.5-7.25,7.125ZM44.5,2.25H96.25V6c0,2.875,1.125,4.125,4.375,4.125,3.5,0,5.25-1.625,5.25-4.75,0-2.125-.5-9.25-.5-24.5v-8c2.75-2,3.5-2.75,3.5-3.625,0-.75-.625-1.5-2.375-3.125-4.25-3.75-5.25-4.25-6.125-4.25-.75,0-1.375.5-5.25,5H70.5v-23.25h39c1.125,0,1.75-.375,1.75-1.25,0-.75-.75-1.625-3.125-3.5-5.75-4.75-6.625-5.375-7.5-5.375-.75,0-1.75.625-7.375,7H70.5V-73c3.5-1.5,4.625-2.5,4.625-3.625,0-1.375-1.75-2.5-14.25-3.75C61.375-76.5,61.5-71.5,61.5-63v29.875H45.625a94.657,94.657,0,0,0-10.75-5.125C35.5-31.5,35.5-26,35.5-16.375c0,15.5-.625,20.125-.625,22.625,0,3,1.125,4,4.125,4,3.875,0,5.5-1.5,5.5-4.625ZM96.25-.875H44.5V-30H96.25Zm-14.75,133H67.75a44.947,44.947,0,0,0-10.125-5c.625,9.75.625,19.625.625,40.5,0,25.25-.625,34.25-.625,39.5,0,2.5,1.25,3.625,4.125,3.625,3.375,0,5-1.5,5-4.375,0-5.625-.125-13.125-.125-30.75h14.75c-.25,17-.375,25-.375,28.5,0,2.625,1,3.5,4,3.5,3.375,0,5-1.125,5-4,0-3.625-.125-12-.125-28h15.75v21c0,1.75-.625,2.375-2,2.375a91.961,91.961,0,0,1-9.375-.75c-.625-.125-.625,1.25,0,1.5,6.125,2.125,7.75,3.375,8.25,7.125.25,2,.5,2.375,2,2.375a12.606,12.606,0,0,0,7.125-2.75c1.875-1.625,2.875-3.375,2.875-7.5,0-3.125-.375-9-.375-44.375v-16.75c2.75-1.625,3.375-2.5,3.375-3.625,0-.875-.5-1.625-2.25-3.125-3.875-3.125-4.625-3.625-5.5-3.625-.75,0-1.5.5-5.5,4.625H89.75v-14.75h29.375c1.25,0,1.625-.375,1.625-1.125s-.625-1.75-2.5-3.375C113.875,109,113,108.5,112.125,108.5c-.75,0-1.625.5-6,5.75H89.75V102.125c3.5-1.375,4.375-2.25,4.375-3.375,0-1.625-1.25-2.125-13.125-3.625.375,3.375.5,7.25.5,19.125H65a42.048,42.048,0,0,1-9.375-1l1.25,4.875a50.281,50.281,0,0,1,8.125-.75H81.5ZM66.625,172.5V154.75H81.5c-.125,5.875-.125,11.875-.125,17.75Zm23.25,0c0-5.875-.125-11.875-.125-17.75h15.875V172.5Zm-.125-37.25h15.875v16.375H89.75Zm-8.25,0v16.375H66.625V135.25ZM34.375,102.875C37.75,102.5,39,102,39,100.875S35,98,26.75,95.125a53.4,53.4,0,0,1-4.375,11.625c-4.375,8.75-11.625,17.5-19.75,25-.625.625.375,2,1.125,1.625a77.306,77.306,0,0,0,29.5-28.625,34.977,34.977,0,0,1,11,12.5c2.5,5.375,3,5.75,5.125,5.75s3.875-2.25,3.875-5c0-5.25-6.625-10.5-19.125-14.75ZM20.25,200.5H40.125v4c0,2.25.875,3.25,3.625,3.25,3.375,0,4.75-1.25,4.75-3.75,0-2-.375-8.75-.375-22.375v-7c2.5-1.625,3-2.25,3-3.25,0-.875-.5-1.5-2.25-3-3.625-2.625-4.25-3.125-5.125-3.125-.75,0-1.375.5-4.5,3.875H21.125c-3.875-1.875-5.625-2.75-9.5-4.375.625,5,.625,8.875.625,16.125,0,17.625-.375,22.5-.375,25.625,0,1.75,1,2.625,3.25,2.625,3.5,0,5.125-1,5.125-3.5Zm19.875-3.125H20.25V172.25H40.125ZM26.5,138v15.625h-13a46.578,46.578,0,0,1-9-.875l1.375,4.75a38.253,38.253,0,0,1,7-.75h41c1.25,0,1.625-.375,1.625-1.25,0-.75-.625-1.75-2.375-3.125-4.125-3.375-5-4-5.75-4-1,0-1.875.625-5.625,5.25H34.625V138h16.5c1.25,0,1.625-.375,1.625-1.125s-.625-1.625-1.875-2.75c-4.375-3.625-5.125-4.25-6-4.25-.75,0-1.625.625-5,5h-5.25V125.75c3-1.375,3.875-2.25,3.875-3.125,0-1.25-1.25-2.375-12.625-3.5.375,4.25.625,7.375.625,11.75v4H19.125a36.594,36.594,0,0,1-8.625-1l1.25,4.875a38.141,38.141,0,0,1,6.875-.75Zm79.125-27.625c1.875,0,3.5-1.625,3.5-4.25,0-4.125-4.5-7.375-12.75-8.625-.625-.125-1.125.875-.625,1.25a23.286,23.286,0,0,1,6.875,8.875C103.5,109.75,104.25,110.375,105.625,110.375Z" transform="translate(361.223 951)" fill="#fff"/>
    <line id="線_1" data-name="線 1" y2="321.755" transform="translate(511.723 844.5)" fill="none" stroke="#fff" stroke-width="1"/>
  </g>
</svg>
