<svg id="title" xmlns="http://www.w3.org/2000/svg" width="23.97" height="225.09" viewBox="0 0 23.97 225.09">
  <defs>
    <style>
      .cls-1 {
        fill: #fff;
      }
    </style>
  </defs>
  <path id="パス_10" data-name="パス 10" class="cls-1" d="M10.32-15.96A80.668,80.668,0,0,1,4.8-5.52a1.667,1.667,0,0,0-.39.99A1.019,1.019,0,0,0,5.49-3.45a1.2,1.2,0,0,0,1.08-.81c1.98-4.02,3.78-7.8,5.52-12.03,1.83-.42,3.66-.93,4.71-1.29.81-.27,1.11-.51,1.11-1.02s-.42-.9-1.2-.9a4.08,4.08,0,0,0-1.44.45,19.023,19.023,0,0,1-2.43.93c.24-.6.51-1.23.72-1.68a3.326,3.326,0,0,1,.81-1.32.914.914,0,0,0,.48-.78c0-.45-.27-.66-.72-.96a6.409,6.409,0,0,0-2.55-.84,1.8,1.8,0,0,0-1.11.27c-.12.09-.24.21-.24.33,0,.09.06.12.18.15a6.35,6.35,0,0,1,1.23.39.788.788,0,0,1,.57.72,4.239,4.239,0,0,1-.18,1.05,26.978,26.978,0,0,1-1.02,3.15,19.1,19.1,0,0,1-3.93.51,3.846,3.846,0,0,1-2.52-.81.458.458,0,0,0-.36-.18.286.286,0,0,0-.24.24.593.593,0,0,0,.06.3,3.29,3.29,0,0,0,1.5,1.44,4.468,4.468,0,0,0,2.1.42A25.8,25.8,0,0,0,10.32-15.96Zm10.92,2.13c-2.13.48-3.57,1.41-3.57,4.2,0,1.47.27,3.09.39,4.65a13.29,13.29,0,0,0-2.34-.18c-2.58,0-4.56,1.14-4.56,3.09,0,1.89,1.74,3.15,4.2,3.15A4.858,4.858,0,0,0,18.87.03a3.477,3.477,0,0,0,1.14-2.88,16.052,16.052,0,0,1,3.9,2.46,1.739,1.739,0,0,0,1.11.51A.953.953,0,0,0,26.01-.9a1.447,1.447,0,0,0-.6-1.17,19.892,19.892,0,0,0-5.46-2.55,34.31,34.31,0,0,1-1.02-5.61c0-2.37,1.47-2.79,2.91-2.79a4.084,4.084,0,0,1,2.49,1.29,1.447,1.447,0,0,0,.9.39.909.909,0,0,0,.9-.93,2.451,2.451,0,0,0-1.35-1.77,10.1,10.1,0,0,0-5.16-1.44,7.985,7.985,0,0,0-2.79.51c-.18.06-.3.18-.3.3a.305.305,0,0,0,.27.33,2.152,2.152,0,0,0,.39-.03,9.83,9.83,0,0,1,1.41-.09,5.933,5.933,0,0,1,2.64.51ZM18.21-3.42a2.591,2.591,0,0,1,.03.45,2.342,2.342,0,0,1-.81,1.83,3.357,3.357,0,0,1-2.37.75c-2.07,0-2.91-.75-2.91-1.65,0-1.23,1.47-1.89,3.15-1.89A9.258,9.258,0,0,1,18.21-3.42Zm3.78,50.18c.3-1.05.54-1.92.81-2.94a1.859,1.859,0,0,1,.54-.99.9.9,0,0,0,.27-.69c0-.45-.45-.99-1.14-1.5a5.422,5.422,0,0,0-2.25-.99,1.667,1.667,0,0,0-.69.12c-.15.06-.3.18-.3.27s.06.18.21.24a4.311,4.311,0,0,1,1.11.63,1.3,1.3,0,0,1,.48,1.2,19.563,19.563,0,0,1-.84,4.02A27.977,27.977,0,0,0,12.6,44.6c.84-1.83,1.8-3.48,2.49-5.01.81-1.74,1.38-3,1.95-4.05.24-.42.45-.63.45-1.02,0-.33-.33-.63-.66-.81a3.667,3.667,0,0,0-1.47-.57.945.945,0,0,0-.69.42,2.366,2.366,0,0,1-1.26.75,14.827,14.827,0,0,1-3.45.78,1.384,1.384,0,0,1-1.17-.6,3.762,3.762,0,0,1-.48-.72c-.12-.21-.21-.33-.33-.33-.09,0-.18.09-.24.24a1.916,1.916,0,0,0-.15.72,4.068,4.068,0,0,0,.75,1.86,1.686,1.686,0,0,0,1.23.87,1.418,1.418,0,0,0,.66-.21,5.754,5.754,0,0,1,1.11-.51c.75-.3,1.71-.63,3.03-1.05.33-.09.42.03.33.27a88.784,88.784,0,0,1-3.81,9.03,10.154,10.154,0,0,0-5.16,1.5A4.777,4.777,0,0,0,3.3,49.94c0,1.83.99,2.52,2.37,2.52a3.653,3.653,0,0,0,2.61-1.08,21.3,21.3,0,0,0,3.78-5.55,20.4,20.4,0,0,1,7.62,1.92,19.331,19.331,0,0,1-2.88,5.04,17.477,17.477,0,0,1-4.65,3.87c-.27.15-.36.24-.36.42a.277.277,0,0,0,.3.27,1.612,1.612,0,0,0,.63-.15,16.264,16.264,0,0,0,5.01-3.21,17.057,17.057,0,0,0,3.63-5.4,23.48,23.48,0,0,1,3.66,2.43,2.178,2.178,0,0,0,1.2.6,1.057,1.057,0,0,0,1.05-1.02,1.763,1.763,0,0,0-.81-1.47A20.482,20.482,0,0,0,21.99,46.76ZM10.35,45.8a20.3,20.3,0,0,1-2.58,3.84A3.034,3.034,0,0,1,5.7,50.9a1,1,0,0,1-1.08-1.11,3.4,3.4,0,0,1,1.59-2.7A9.117,9.117,0,0,1,10.35,45.8Zm5.31,48.62a44.484,44.484,0,0,0,4.56-2.04c.6-.27.72-.57.72-.99,0-.45-.33-.78-1.05-.81a2.516,2.516,0,0,0-1.17.42c-.39.24-.63.48-1.11.75a13.945,13.945,0,0,1-2.31,1.11,18.417,18.417,0,0,1-.42-2.16,1.249,1.249,0,0,1,.09-.78,1.489,1.489,0,0,0,.18-.69c0-.27-.33-.66-.93-.87a6.774,6.774,0,0,0-1.89-.45,2.452,2.452,0,0,0-1.56.57.573.573,0,0,0-.21.42c0,.09.09.15.21.15a8.916,8.916,0,0,1,.9,0c.75.06.96.36,1.2,1.05.33.99.81,2.34,1.08,3.27a18.071,18.071,0,0,1-4.89.99,5.855,5.855,0,0,1-2.97-.51.832.832,0,0,0-.36-.15.263.263,0,0,0-.27.24.712.712,0,0,0,.15.36,2.9,2.9,0,0,0,1.56,1.08,6.834,6.834,0,0,0,2.4.36,18.111,18.111,0,0,0,4.83-.87c.54,1.38.99,2.55,1.5,3.84a16.53,16.53,0,0,1-5.28,1.05c-1.26,0-1.5-.27-1.5-.9a2.337,2.337,0,0,1,.18-.93.782.782,0,0,0,.09-.33c0-.12-.15-.21-.27-.21-.09,0-.24.03-.42.27a2.713,2.713,0,0,0-.57,1.59c0,1.35,1.17,1.92,2.88,1.92a18.051,18.051,0,0,0,5.49-1.05c.87,1.74,1.62,3.12,2.22,4.29-1.59-.18-3.45-.33-4.44-.33a10.188,10.188,0,0,0-5.19,1.11,3.45,3.45,0,0,0-1.83,3.06c0,1.83,1.23,3.21,3.42,4.02a17.41,17.41,0,0,0,5.55,1.02,9.234,9.234,0,0,0,1.92-.15.829.829,0,0,0,.66-.87,1.191,1.191,0,0,0-.45-.99,1.647,1.647,0,0,0-1.11-.3c-.48,0-1.71.03-2.16.03a14.629,14.629,0,0,1-4.11-.57c-1.92-.57-2.4-1.44-2.4-2.58A2.3,2.3,0,0,1,9.84,106a7.014,7.014,0,0,1,3.6-.81,16.167,16.167,0,0,1,4.5.66,4.5,4.5,0,0,1,1.92,1.23,1,1,0,0,0,.81.36c.3,0,.78-.36.78-1.44a2.762,2.762,0,0,0-.99-2.16,22.3,22.3,0,0,1-2.73-4.17,26,26,0,0,0,5.01-2.58.978.978,0,0,0,.54-.84c0-.33-.24-.6-.72-.63a5.826,5.826,0,0,0-.99.06,2.7,2.7,0,0,1-.93-.18,8.067,8.067,0,0,1-1.29-.57c-.21-.12-.3-.18-.42-.18a.323.323,0,0,0-.27.24c0,.12.06.21.21.33a13.866,13.866,0,0,1,1.14,1.05.438.438,0,0,1,.15.24c0,.09-.03.15-.15.24a21.9,21.9,0,0,1-2.91,1.44A32.327,32.327,0,0,1,15.66,94.42Z" transform="translate(-3.3 111.8)"/>
  <path id="パス_9" data-name="パス 9" class="cls-1" d="M8.74.24h7V.82c0,.34.16.52.64.52.58,0,.88-.2.88-.64,0-.36-.08-1.6-.08-4.06V-4.58c.52-.36.56-.44.56-.58,0-.12-.08-.24-.38-.52-.66-.52-.76-.6-.9-.6-.12,0-.22.08-.88.78h-2.7V-9.6h6.04c.2,0,.26-.06.26-.2,0-.12-.08-.24-.48-.58-.92-.78-1.04-.88-1.18-.88-.12,0-.26.1-1.14,1.16h-3.5v-4.02a22.231,22.231,0,0,0,3.6-1.12c.76.18.96.02.96-.14,0-.18-.32-.5-1.48-1.42a6.893,6.893,0,0,1-1.76,1.06,30.494,30.494,0,0,1-7.46,2.06c-.14.02-.1.3.04.3a36.76,36.76,0,0,0,4.66-.46v3.74H7.82a7.355,7.355,0,0,1-1.58-.14l.2.76A8.784,8.784,0,0,1,7.82-9.6h3.62v4.1H8.94A9.341,9.341,0,0,0,7.2-6.34a26.852,26.852,0,0,1,.12,3.32c0,2.7-.06,3.5-.06,3.96,0,.36.18.5.6.5.58,0,.88-.2.88-.64Zm7-.5h-7V-5h7ZM3.2,1.32c.58,0,1.02-.5,1.02-1.3,0-.94-.7-1.94-.7-2.82a4.406,4.406,0,0,1,.26-1.26c.86-2.42,1.58-4.52,2.46-7.3.04-.1-.2-.2-.24-.1A71.025,71.025,0,0,1,2.76-4.44c-.3.54-.58.64-.96.64a4.984,4.984,0,0,1-.86-.1c-.12-.02-.16.24-.04.28,1.34.36,1.6.7,1.6,1.84,0,.72-.14,1.34-.14,2.04S2.66,1.32,3.2,1.32ZM4.76-13.16c.36,0,.7-.3.7-.86,0-1-1.22-1.88-3.14-2.12-.08,0-.16.12-.1.16a5.052,5.052,0,0,1,1.74,2.02C4.24-13.34,4.38-13.16,4.76-13.16ZM3.26-8.54a.819.819,0,0,0,.76-.92c0-.96-1.2-1.8-3.06-2.06-.08-.02-.16.14-.1.18A4.366,4.366,0,0,1,2.48-9.38C2.74-8.78,2.92-8.54,3.26-8.54ZM5.34,36.02H14.9v.2c0,.36.16.5.58.5.62,0,.92-.2.92-.64,0-.42-.08-1.78-.08-4.58V29.96c.46-.26.58-.38.58-.56,0-.14-.08-.26-.42-.52-.66-.56-.78-.62-.92-.62-.12,0-.22.06-.82.74H10.22a23.56,23.56,0,0,0,2.38-2.32c.74-.14.9-.26.9-.52,0-.16-.1-.32-.4-.62-.76-.7-.9-.82-1.06-.82-.14,0-.28.1-.9.82H7.5a12.31,12.31,0,0,0,.66-1.1c.66-.12.86-.22.86-.44,0-.24-.24-.38-2.12-.96a10.091,10.091,0,0,1-1.04,2.48,14.377,14.377,0,0,1-4.3,4.76c-.12.08.04.34.16.28A20.217,20.217,0,0,0,3.9,29.28c.02,1.02.04,2.1.04,3.8,0,2.2-.08,2.9-.08,3.22,0,.38.16.52.6.52.64,0,.88-.18.88-.64Zm0-.5V32.68h4v2.84Zm9.56,0H10.72V32.68H14.9Zm0-3.34H10.72V29.5H14.9ZM9.34,29.5v2.68h-4V29.5Zm1.86-3.46A15.929,15.929,0,0,1,9.64,29H5.54c-.22-.14-.48-.3-.72-.42a14.827,14.827,0,0,0,2.34-2.54Zm6.14,15.28a.848.848,0,0,0,.84-.94c0-1.16-1.4-2.3-3.46-3-.1-.04-.2.14-.12.2a6.453,6.453,0,0,1,1.86,2.72C16.74,41.1,16.9,41.32,17.34,41.32Zm-4.9-.14a.9.9,0,0,0,.88-.96c0-.96-.88-2.04-2.46-2.82-.08-.04-.18.1-.14.16a6.386,6.386,0,0,1,1.02,2.7C11.84,40.96,12.02,41.18,12.44,41.18Zm-4.54.1a1.006,1.006,0,0,0,1-1.1,3.925,3.925,0,0,0-1.68-2.8c-.06-.04-.2.04-.18.12a6.936,6.936,0,0,1,.24,2.82C7.24,40.96,7.5,41.28,7.9,41.28Zm-5.64.1c1.46,0,2.5-1.96,2.26-4,0-.08-.2-.08-.22,0A2.992,2.992,0,0,1,2.28,39.6a1.033,1.033,0,0,0-.82,1A.762.762,0,0,0,2.26,41.38Z" transform="translate(1.7 16.8)"/>
</svg>
